<svg width="24" height="24" viewBox="0 0 24 24" fill="none" xmlns="http://www.w3.org/2000/svg">
<rect width="24" height="24" rx="4" fill="#222B44"/>
<path d="M18.2786 7.18526H15.1998V5.99738C15.1998 5.48829 14.7876 5.07617 14.2786 5.07617H9.64825C9.13916 5.07617 8.72704 5.48829 8.72704 5.99738V7.18526H5.72098C4.89673 7.18526 4.24219 7.86405 4.24219 8.66405V9.51254L11.127 12.7125C11.1755 12.2519 11.5392 11.8883 11.9998 11.8883C12.4604 11.8883 12.8482 12.2519 12.8725 12.7125L19.7573 9.51254V8.66405C19.7573 7.86405 19.1028 7.18526 18.2786 7.18526ZM14.7149 7.18526H9.21188V5.99738C9.21188 5.75496 9.40582 5.56102 9.64825 5.56102H14.2786C14.521 5.56102 14.7149 5.75496 14.7149 5.99738V7.18526Z" fill="#4785FF"/>
<path d="M12.4116 13.8276V12.7852C12.4116 12.567 12.2419 12.373 11.9995 12.373C11.7571 12.373 11.5874 12.5427 11.5874 12.7852V13.8276C11.5874 14.0458 11.7571 14.2397 11.9995 14.2397C12.2419 14.2397 12.4116 14.0458 12.4116 13.8276Z" fill="#4785FF"/>
<path d="M12.8967 13.8267C12.8967 14.3116 12.5089 14.7237 11.9998 14.7237C11.4907 14.7237 11.1028 14.3358 11.1028 13.8267V13.2449L4.24219 10.0449V16.4449C4.24219 17.2692 4.89673 17.9237 5.72098 17.9237H18.2786C19.1028 17.9237 19.7573 17.2692 19.7573 16.4449V10.0449L12.8967 13.2449V13.8267Z" fill="#4785FF"/>
</svg>
